<?xml version="1.0" encoding="iso-8859-1"?>
<!-- Generator: Adobe Illustrator 19.0.0, SVG Export Plug-In . SVG Version: 6.00 Build 0)  -->
<svg version="1.1" id="Layer_1" xmlns="http://www.w3.org/2000/svg" xmlns:xlink="http://www.w3.org/1999/xlink" x="0px" y="0px"
	 viewBox="0 0 512 512" style="enable-background:new 0 0 512 512;" xml:space="preserve">
<path style="fill:#FFF1CE;" d="M378.901,134.53c0,12.492-9.14,22.621-20.417,22.621H151.424c-11.277,0-20.417-10.128-20.417-22.621
	l19.786-73.119c3.393-11.068,15.737-22.621,27.011-22.621h154.297c11.277,0,23.895,10.196,27.013,22.621L378.901,134.53z"/>
<g style="opacity:0.15;">
	<path style="fill:#202020;" d="M156.276,134.53l19.784-73.119c3.393-11.068,15.737-22.621,27.013-22.621h-26.53
		c-11.275,0-23.618,11.553-27.011,22.621l-19.786,73.119c0,12.492,9.14,22.621,20.417,22.621h26.527
		C165.416,157.15,156.276,147.021,156.276,134.53z"/>
</g>
<path style="fill:#FFF1CE;" d="M503.892,282.828c0,12.492-9.14,22.621-20.417,22.621H276.416c-11.275,0-20.415-10.128-20.415-22.621
	l19.784-73.119c3.393-11.068,15.737-22.621,27.013-22.621h154.297c11.275,0,23.895,10.196,27.013,22.621L503.892,282.828z"/>
<g style="opacity:0.15;">
	<path style="fill:#202020;" d="M281.29,282.828l19.785-73.119c3.393-11.068,15.737-22.621,27.012-22.621h-26.551
		c-11.277,0-23.62,11.552-27.013,22.621l-19.784,73.119c0,12.492,9.14,22.621,20.415,22.621h26.552
		C290.43,305.449,281.29,295.321,281.29,282.828z"/>
</g>
<path style="fill:#FFF1CE;" d="M256.002,282.828c0,12.492-9.14,22.621-20.417,22.621H28.525c-11.277,0-20.417-10.128-20.417-22.621
	l19.786-73.119c3.393-11.068,15.737-22.621,27.011-22.621h154.3c11.275,0,23.893,10.196,27.011,22.621L256.002,282.828z"/>
<ellipse style="fill:#E95353;" cx="379.949" cy="243.825" rx="55.061" ry="23.25"/>
<path style="fill:#494F63;" d="M350.561,473.207h132.914c11.277,0,20.417-10.129,20.417-22.622V286.238h-0.255
	c-1.489,10.871-9.935,19.212-20.161,19.212h-207.06c-10.225,0-18.673-8.341-20.159-19.212h-0.255v164.348
	c0,12.492,9.14,22.622,20.415,22.622h47.228"/>
<g>
	<ellipse style="fill:#E95353;" cx="254.95" cy="95.519" rx="55.061" ry="23.25"/>
	<path style="fill:#E95353;" d="M187.115,243.821c0,12.839-24.651,23.25-55.061,23.25c-30.406,0-55.061-10.41-55.061-23.25
		c0-12.84,24.655-23.25,55.061-23.25C162.465,220.572,187.115,230.981,187.115,243.821z"/>
</g>
<path style="fill:#494F63;" d="M102.671,473.207h132.914c11.277,0,20.417-10.129,20.417-22.622V286.238h-0.255
	c-1.489,10.871-9.934,19.212-20.161,19.212H28.525c-10.228,0-18.673-8.341-20.161-19.212H8.108v164.348
	c0,12.492,9.14,22.622,20.417,22.622h47.226"/>
<g style="opacity:0.15;">
	<path style="fill:#202020;" d="M33.447,450.586V305.449h-6.183c-10.228,0-18.673-8.341-20.161-19.212H6.846v164.348
		c0,12.492,9.14,22.622,20.417,22.622h26.6C42.588,473.207,33.447,463.078,33.447,450.586z"/>
</g>
<g style="opacity:0.15;">
	<path style="fill:#202020;" d="M281.339,450.586V305.449h-6.185c-10.225,0-18.67-8.341-20.159-19.212h-0.255v164.348
		c0,12.492,9.14,22.622,20.415,22.622h26.601C290.479,473.207,281.339,463.078,281.339,450.586z"/>
</g>
<path style="fill:#494F63;" d="M302.798,187.09h76.102v-49.152h-0.255c-1.489,10.871-9.934,19.211-20.161,19.211h-207.06
	c-10.228,0-18.673-8.341-20.161-19.211h-0.255v49.152h78.197c11.275,0,23.893,10.196,27.011,22.621l19.786,73.119l19.784-73.119
	C279.178,198.642,291.521,187.09,302.798,187.09z"/>
<g style="opacity:0.15;">
	<path style="fill:#202020;" d="M150.162,157.15c-10.228,0-18.673-8.341-20.161-19.211h-0.255v49.152h26.598v-29.94h-6.181V157.15z"
		/>
</g>
<g>
	<path style="fill:#202020;" d="M379.948,212.464c-31.391,0-63.169,10.771-63.169,31.357s31.778,31.357,63.169,31.357
		s63.169-10.771,63.169-31.357S411.339,212.464,379.948,212.464z M379.948,258.963c-30.978,0-46.953-10.614-46.953-15.142
		c0-4.528,15.974-15.142,46.953-15.142s46.953,10.614,46.953,15.142C426.901,248.349,410.926,258.963,379.948,258.963z"/>
	<path style="fill:#202020;" d="M254.954,126.879c31.391,0,63.169-10.771,63.169-31.357s-31.778-31.357-63.169-31.357
		s-63.169,10.771-63.169,31.357S223.563,126.879,254.954,126.879z M254.954,80.38c30.978,0,46.953,10.614,46.953,15.142
		c0,4.528-15.975,15.142-46.953,15.142s-46.953-10.614-46.953-15.142C208.001,90.993,223.976,80.38,254.954,80.38z"/>
	<path style="fill:#202020;" d="M132.054,212.464c-31.391,0-63.169,10.771-63.169,31.357s31.778,31.357,63.169,31.357
		s63.169-10.771,63.169-31.357S163.445,212.464,132.054,212.464z M132.054,258.963c-30.978,0-46.953-10.614-46.953-15.142
		c0-4.528,15.975-15.141,46.953-15.141s46.953,10.614,46.953,15.142S163.033,258.963,132.054,258.963z"/>
	<path style="fill:#202020;" d="M512,282.828c0-0.715-0.095-1.427-0.282-2.118l-19.766-73.054
		c-4.012-15.819-19.63-28.674-34.857-28.674h-70.087v-41.044c0-0.383-0.036-0.757-0.088-1.125c0.052-0.755,0.088-1.515,0.088-2.283
		c0-0.716-0.095-1.427-0.282-2.118l-19.767-73.05c-4.011-15.821-19.63-28.678-34.858-28.678H177.804
		c-15.595,0-30.565,14.66-34.763,28.352c-0.026,0.085-0.051,0.172-0.074,0.258l-19.786,73.119c-0.187,0.691-0.282,1.402-0.282,2.118
		c0,0.769,0.036,1.529,0.088,2.283c-0.051,0.369-0.088,0.743-0.088,1.125v41.044H54.904c-15.595,0-30.565,14.66-34.763,28.352
		c-0.026,0.085-0.051,0.172-0.074,0.258L0.282,280.711C0.095,281.401,0,282.113,0,282.828c0,0.769,0.036,1.529,0.088,2.283
		C0.036,285.481,0,285.854,0,286.238v77.486v12.59v74.272c0,16.944,12.796,30.729,28.525,30.729h47.226
		c4.479,0,8.108-3.629,8.108-8.108c0-4.479-3.629-8.108-8.108-8.108H28.525c-6.787,0-12.31-6.51-12.31-14.514v-8.175
		c3.728,1.93,7.903,3.013,12.31,3.013h131.246c4.479,0,8.108-3.629,8.108-8.108c0-4.479-3.629-8.108-8.108-8.108H28.525
		c-6.787,0-12.31-6.51-12.31-14.514V404.03c3.728,1.93,7.903,3.013,12.31,3.013h48.469c4.479,0,8.108-3.629,8.108-8.108
		c0-4.479-3.629-8.108-8.108-8.108H28.525c-6.787,0-12.31-6.51-12.31-14.514v-12.59v-53.178c2.767,1.432,5.782,2.39,8.954,2.792
		c0.055,0.008,0.111,0.016,0.166,0.023c0.439,0.053,0.882,0.093,1.326,0.124c0.095,0.007,0.189,0.017,0.284,0.024
		c0.522,0.03,1.048,0.049,1.577,0.049h207.059c0.53,0,1.055-0.018,1.577-0.049c0.095-0.005,0.19-0.017,0.285-0.024
		c0.444-0.031,0.888-0.071,1.326-0.124c0.056-0.007,0.111-0.016,0.168-0.023c3.171-0.402,6.187-1.36,8.953-2.792v53.179v12.59
		v74.272c0,8.003-5.522,14.514-12.31,14.514H102.671c-4.479,0-8.108,3.629-8.108,8.108s3.629,8.108,8.108,8.108h132.914
		c7.997,0,15.233-3.568,20.416-9.3c5.185,5.732,12.418,9.3,20.415,9.3h47.228c4.479,0,8.108-3.629,8.108-8.108
		s-3.629-8.108-8.108-8.108h-47.228c-6.786,0-12.307-6.51-12.307-14.514v-8.174c3.728,1.929,7.902,3.012,12.307,3.012h131.246
		c4.479,0,8.108-3.629,8.108-8.108c0-4.479-3.629-8.108-8.108-8.108H276.416c-6.786,0-12.307-6.51-12.307-14.514v-10.663
		c3.728,1.929,7.902,3.012,12.307,3.012h48.471c4.479,0,8.108-3.629,8.108-8.108s-3.629-8.108-8.108-8.108h-48.471
		c-6.786,0-12.307-6.51-12.307-14.514v-12.59v-53.179c2.765,1.43,5.777,2.388,8.945,2.791c0.058,0.008,0.117,0.017,0.176,0.024
		c0.436,0.053,0.876,0.093,1.317,0.123c0.098,0.007,0.195,0.018,0.293,0.024c0.522,0.03,1.048,0.049,1.576,0.049h207.059
		c0.53,0,1.055-0.018,1.577-0.049c0.095-0.005,0.19-0.017,0.285-0.024c0.444-0.031,0.888-0.071,1.326-0.124
		c0.056-0.007,0.111-0.016,0.168-0.023c3.171-0.402,6.187-1.36,8.953-2.792v140.041c0,8.003-5.522,14.514-12.31,14.514H350.561
		c-4.479,0-8.108,3.629-8.108,8.108c0,4.479,3.629,8.108,8.108,8.108h132.914c15.729,0,28.525-13.785,28.525-30.729V286.238
		c0-0.383-0.036-0.757-0.088-1.125C511.964,284.357,512,283.598,512,282.828z M158.58,63.672
		c2.618-8.328,12.28-16.773,19.223-16.773h154.297c7.086,0,16.781,7.05,19.149,16.487c0.012,0.048,0.024,0.096,0.038,0.144
		l19.477,71.976c-0.021,0.362-0.062,0.718-0.105,1.072c-0.015,0.088-0.036,0.173-0.049,0.262
		c-0.832,6.084-4.925,10.859-9.926,11.963c-0.038,0.008-0.076,0.012-0.114,0.019c-0.316,0.066-0.632,0.121-0.955,0.157
		c-0.374,0.04-0.752,0.065-1.135,0.065H151.424c-0.383,0-0.761-0.025-1.135-0.065c-0.321-0.036-0.639-0.091-0.953-0.157
		c-0.038-0.008-0.077-0.012-0.115-0.019c-5.001-1.104-9.094-5.879-9.926-11.963c-0.012-0.089-0.034-0.174-0.048-0.262
		c-0.043-0.355-0.084-0.709-0.105-1.072L158.58,63.672z M139.115,162.245c2.767,1.432,5.782,2.39,8.954,2.792
		c0.055,0.008,0.111,0.016,0.166,0.023c0.439,0.053,0.882,0.093,1.326,0.124c0.095,0.006,0.189,0.017,0.284,0.024
		c0.522,0.03,1.048,0.049,1.577,0.049h207.059c0.53,0,1.055-0.018,1.577-0.049c0.095-0.005,0.19-0.017,0.285-0.024
		c0.444-0.031,0.888-0.071,1.326-0.124c0.056-0.006,0.111-0.016,0.168-0.023c3.171-0.402,6.187-1.36,8.953-2.792v16.738h-67.995
		c-14.134,0-27.755,12.039-33.309,24.489c-0.574,1.287-1.063,2.579-1.456,3.864c-0.026,0.085-0.051,0.172-0.074,0.258
		l-11.958,44.195l-11.941-44.126c-4.011-15.821-19.629-28.678-34.856-28.678h-70.09L139.115,162.245L139.115,162.245z
		 M28.525,297.341c-0.383,0-0.761-0.025-1.135-0.065c-0.321-0.036-0.639-0.091-0.953-0.157c-0.038-0.008-0.077-0.012-0.115-0.019
		c-5.001-1.104-9.094-5.879-9.926-11.963c-0.012-0.089-0.034-0.174-0.048-0.262c-0.043-0.355-0.084-0.709-0.105-1.072l19.438-71.833
		c2.618-8.328,12.28-16.773,19.223-16.773h76.102h78.197c7.085,0,16.779,7.05,19.147,16.487c0.012,0.048,0.024,0.096,0.038,0.144
		l19.477,71.976c-0.021,0.362-0.062,0.718-0.105,1.072c-0.015,0.088-0.036,0.173-0.049,0.262
		c-0.832,6.084-4.925,10.859-9.926,11.963c-0.038,0.008-0.076,0.012-0.113,0.019c-0.316,0.066-0.632,0.121-0.955,0.157
		c-0.374,0.04-0.752,0.065-1.135,0.065H28.525z M276.416,297.341c-0.383,0-0.761-0.025-1.135-0.065
		c-0.315-0.036-0.626-0.09-0.934-0.154c-0.045-0.009-0.091-0.014-0.135-0.024c-5.001-1.104-9.09-5.878-9.922-11.959
		c-0.012-0.089-0.034-0.173-0.048-0.259c-0.043-0.356-0.084-0.712-0.105-1.076l19.436-71.834
		c2.619-8.327,12.282-16.772,19.225-16.772h76.102h78.195c7.086,0,16.781,7.05,19.149,16.487c0.012,0.048,0.024,0.096,0.038,0.144
		l19.475,71.976c-0.021,0.362-0.063,0.719-0.105,1.073c-0.015,0.088-0.036,0.172-0.048,0.259
		c-0.832,6.084-4.925,10.859-9.926,11.963c-0.038,0.008-0.076,0.012-0.114,0.019c-0.316,0.066-0.632,0.121-0.955,0.157
		c-0.374,0.04-0.752,0.065-1.135,0.065L276.416,297.341L276.416,297.341z"/>
</g>
<g style="opacity:0.15;">
	<path style="fill:#202020;" d="M33.398,282.828l19.785-73.119c3.393-11.068,15.737-22.621,27.012-22.621H53.643
		c-11.275,0-23.618,11.552-27.011,22.621L6.846,282.828c0,12.492,9.14,22.621,20.417,22.621h26.55
		C42.538,305.449,33.398,295.321,33.398,282.828z"/>
</g>
<g>
</g>
<g>
</g>
<g>
</g>
<g>
</g>
<g>
</g>
<g>
</g>
<g>
</g>
<g>
</g>
<g>
</g>
<g>
</g>
<g>
</g>
<g>
</g>
<g>
</g>
<g>
</g>
<g>
</g>
</svg>
